<svg width="290" height="46" viewBox="0 0 290 46" fill="none" xmlns="http://www.w3.org/2000/svg">
<path d="M34.7102 11.5999C34.9256 8.56427 33.1559 5.74074 30.3456 4.63717C27.5354 3.53029 24.3373 4.39856 22.455 6.77471L21.1062 6.30743L19.7309 5.87661L18.339 5.48556C20.2412 2.21463 23.6712 0.150001 27.4293 0.00749831C31.1874 -0.13169 34.7665 1.67445 36.9041 4.79624L41.1924 5.09782L34.7102 11.5999Z" fill="#2E9CA6"></path>
<path d="M37.8718 23.1724L37.8419 24.1103L37.7756 25.0482L37.6696 25.9761L37.5238 26.8941L37.3382 27.8121L37.1162 28.7201L36.8544 29.6182L36.5528 30.5063L36.2147 31.3746L35.8469 32.2329L35.4293 33.0614L34.9852 33.89L34.5113 34.6919L33.9977 35.4641L33.4542 36.2263L32.8742 36.9587L32.2744 37.6613L31.6348 38.344L30.9654 38.9968L30.2794 39.6232L29.5635 40.2098L28.8179 40.7765L28.0523 41.3034L27.2669 41.8005L26.455 42.2578L25.6331 42.6887L24.7913 43.0797L23.9297 43.431L23.0581 43.7425L22.1766 44.0242L21.2752 44.2595L20.3738 44.465L19.4525 44.6207L18.5411 44.7467L17.6132 44.8262L16.6853 44.8759H15.764L14.8361 44.8361L13.9081 44.7566L12.9868 44.6406L12.0755 44.4848L11.1641 44.2893L10.2727 44.054L9.3812 43.7889L8.82113 44.1004L8.23123 44.3755L7.64134 44.6307L7.03156 44.8461L6.41184 45.0217L5.78218 45.1576L5.14257 45.2636L4.50297 45.3332L3.85342 45.3631L3.20388 45.3531L2.56427 45.3133L1.92467 45.2239L1.28506 45.1079L8.04565 38.3208C14.7267 41.9065 22.9421 40.6837 28.3108 35.3017C33.6762 29.9198 34.9389 21.638 31.4227 14.8808L34.7036 11.59L35.1708 12.4052L35.5983 13.2337L35.996 14.0722L36.3539 14.9404L36.6721 15.8186L36.9637 16.7068L37.2056 17.6049L37.4177 18.5129L37.5834 19.4409L37.7094 20.3688L37.8055 21.2967L37.8552 22.2246L37.8651 23.1625L37.8718 23.1724Z" fill="#2E9CA6"></path>
<path fill-rule="evenodd" clip-rule="evenodd" d="M16.1782 36.8925C23.8004 36.8925 29.9844 30.6589 29.9844 22.9671C29.9844 22.4931 29.9612 22.0226 29.9148 21.5586C29.7657 20.0574 29.3779 18.6224 28.7913 17.3001L16.8344 29.2305L9.5999 21.996C8.95036 21.3465 8.95036 20.2926 9.5999 19.6431C10.2494 18.9936 11.3033 18.9936 11.9529 19.6431L16.8377 24.528L27.0316 14.3573C25.4608 12.3456 23.3531 10.7814 20.9272 9.88334C20.9139 9.87671 20.904 9.87339 20.8907 9.87008C20.7052 9.8038 20.5163 9.73752 20.324 9.67455C20.3108 9.67124 20.3008 9.66793 20.2876 9.66461C15.7573 8.1468 10.9089 7.32492 5.87495 7.32492C4.22789 7.32492 2.60402 7.4144 1.00335 7.58673C0.406832 9.2835 0.0853729 11.1062 0.0853729 13.0084C0.0853729 16.1203 0.95033 19.0234 2.45158 21.4956C2.39855 21.9795 2.37536 22.4699 2.37536 22.9671C2.37536 30.6589 8.5593 36.8925 16.1815 36.8925H16.1782Z" fill="#39A5AF"></path>
<path fill-rule="evenodd" clip-rule="evenodd" d="M56.0492 37.4923C57.417 38.1282 59.0331 38.453 60.8512 38.4534C60.8501 38.4534 60.849 38.4534 60.8479 38.4534H60.8545C60.8534 38.4534 60.8523 38.4534 60.8512 38.4534C62.7155 38.453 64.3084 38.1116 65.5836 37.4393C66.8628 36.7632 67.8338 35.8751 68.4734 34.798C69.113 33.721 69.4378 32.5378 69.4378 31.2818C69.4378 29.8634 69.1428 28.6737 68.5629 27.7491C67.9829 26.8278 67.1975 26.0689 66.2265 25.5022C65.2621 24.9355 64.1486 24.445 62.9224 24.044L62.7954 23.9995C61.5712 23.5702 60.48 23.1876 59.5189 22.8576C58.5347 22.5196 57.7526 22.0855 57.1925 21.5718C56.6358 21.0614 56.3541 20.3191 56.3541 19.368C56.3541 18.3009 56.7385 17.4525 57.4908 16.8493C58.2199 16.2661 59.1511 15.9711 60.2613 15.9711H60.3905C61.3019 15.9711 62.0807 16.16 62.7103 16.5312C63.3367 16.9057 63.8238 17.3829 64.1486 17.9529C64.4734 18.5262 64.6391 19.1327 64.6391 19.759V19.8021H68.6954V19.759C68.6722 18.3638 68.311 17.1211 67.625 16.0672C66.9357 15.0134 65.9713 14.1815 64.7518 13.5883C63.5355 12.9951 62.1271 12.6969 60.4966 12.6969C58.8661 12.6969 57.4212 12.9885 56.2049 13.5685C54.9854 14.1484 54.0276 14.9736 53.3516 16.0142C52.6755 17.0581 52.3474 18.2942 52.3706 19.6894C52.3706 21.3497 52.8578 22.7052 53.8188 23.7259C54.7766 24.74 56.2314 25.5817 58.1436 26.218C59.0749 26.5362 60.0061 26.8477 60.9108 27.1393C61.7791 27.421 62.5579 27.7425 63.2273 28.0938C63.8934 28.445 64.4237 28.8924 64.8081 29.4293C65.1892 29.9629 65.3847 30.6687 65.3847 31.5304C65.3847 32.6008 64.9771 33.489 64.1751 34.175C63.3731 34.8643 62.2431 35.2123 60.818 35.2123C59.2041 35.2123 57.9382 34.7516 57.0533 33.8436C56.1652 32.9322 55.7045 31.8088 55.6813 30.503V30.46H51.625V30.503C51.6482 32.1335 52.0525 33.5619 52.8213 34.745C53.5902 35.9281 54.6772 36.8527 56.0492 37.4923Z" fill="#444B5A"></path>
<path fill-rule="evenodd" clip-rule="evenodd" d="M73.547 36.455C74.7699 37.7806 76.4667 38.4534 78.5976 38.4534L78.5943 38.4567C79.9663 38.4567 81.1958 38.1386 82.2496 37.5122C83.2604 36.9124 84.0491 36.0839 84.5926 35.0565L84.8677 38.0325H88.2844V20.3589H84.4402V29.479C84.4402 31.3017 83.9928 32.7235 83.1046 33.7044C82.2198 34.682 81.0731 35.1791 79.6978 35.1791C76.9472 35.1791 75.5553 33.4757 75.5553 30.1153V20.3556H71.7111V30.5031C71.7111 33.1278 72.3275 35.1294 73.547 36.455Z" fill="#444B5A"></path>
<path fill-rule="evenodd" clip-rule="evenodd" d="M92.1353 20.3522V38.0259H95.9762V29.542C95.9762 28.1136 96.2215 26.9836 96.6987 26.1783C97.1759 25.3763 97.8221 24.7963 98.6274 24.4583C99.4361 24.1203 100.367 23.9479 101.395 23.9479H102.465V19.9247H102.422C100.864 19.9247 99.5123 20.2661 98.412 20.9421C97.3516 21.595 96.5032 22.4798 95.8934 23.5834L95.5852 20.3522H92.1353Z" fill="#444B5A"></path>
<path fill-rule="evenodd" clip-rule="evenodd" d="M103.917 20.3754L110.545 38.049H115.072L121.663 20.3754H117.67L112.808 34.2943L107.943 20.3754H103.917Z" fill="#444B5A"></path>
<path fill-rule="evenodd" clip-rule="evenodd" d="M126.555 37.2935C127.89 38.0623 129.441 38.4534 131.168 38.4534H131.174C133.256 38.4534 135.022 37.89 136.43 36.7765C137.836 35.6663 138.79 34.2644 139.264 32.6074L139.28 32.5511H135.436L135.426 32.5776C135.078 33.3929 134.538 34.049 133.829 34.5263C133.116 35.0035 132.225 35.2454 131.174 35.2454C129.869 35.2454 128.702 34.8013 127.711 33.9264C126.727 33.0581 126.167 31.7789 126.044 30.1186H139.728V30.0788C139.751 29.7474 139.768 29.4459 139.781 29.1741C139.791 28.9024 139.797 28.6472 139.797 28.4086C139.797 26.8709 139.436 25.4425 138.727 24.1666C138.018 22.8908 137.01 21.8535 135.734 21.0846C134.455 20.3158 132.981 19.9247 131.208 19.9247C129.435 19.9247 127.857 20.3224 126.522 21.1012C125.183 21.8833 124.129 22.9869 123.383 24.3821C122.638 25.7773 122.26 27.4376 122.26 29.2603C122.26 31.083 122.644 32.7002 123.4 34.0689C124.159 35.4409 125.219 36.5246 126.555 37.2935ZM134.505 24.2926C135.383 25.078 135.864 26.1484 135.943 27.4807H135.94H126.107C126.323 26.0324 126.913 24.9322 127.857 24.2064C128.815 23.4707 129.928 23.0995 131.164 23.0995C132.493 23.0995 133.617 23.5005 134.505 24.2926Z" fill="#444B5A"></path>
<path fill-rule="evenodd" clip-rule="evenodd" d="M148.248 36.5711L144.026 45.8272H148.096L159.479 20.3523H155.413L149.806 33.3002L144.444 20.3523H140.271L147.257 36.5711H148.248Z" fill="#444B5A"></path>
<path fill-rule="evenodd" clip-rule="evenodd" d="M164.646 37.5852C166.014 38.2211 167.63 38.5459 169.448 38.5463C169.447 38.5463 169.446 38.5463 169.445 38.5463H169.451C169.45 38.5463 169.449 38.5463 169.448 38.5463C171.312 38.5458 172.905 38.2045 174.18 37.5322C175.46 36.8561 176.431 35.968 177.07 34.8909C177.71 33.8138 178.035 32.6307 178.035 31.3747C178.035 29.9563 177.74 28.7666 177.16 27.842C176.58 26.9207 175.794 26.1618 174.823 25.5951C173.859 25.0284 172.745 24.5379 171.519 24.1369L171.39 24.0915C170.166 23.6626 169.076 23.2803 168.116 22.9505C167.131 22.6125 166.349 22.1784 165.789 21.6647C165.232 21.1543 164.951 20.412 164.951 19.4609C164.951 18.3938 165.332 17.5454 166.088 16.9422C166.817 16.359 167.748 16.064 168.858 16.064H168.987C169.899 16.064 170.677 16.2529 171.307 16.6241C171.933 16.9986 172.421 17.4758 172.745 18.0458C173.07 18.6191 173.236 19.2256 173.236 19.8519V19.895H177.292V19.8519C177.269 18.4567 176.908 17.214 176.222 16.1601C175.532 15.1063 174.568 14.2744 173.349 13.6812C172.132 13.088 170.724 12.7898 169.093 12.7898C167.463 12.7898 166.018 13.0814 164.802 13.6613C163.582 14.2446 162.624 15.0665 161.948 16.1071C161.272 17.151 160.944 18.3871 160.967 19.7823C160.967 21.4426 161.455 22.7981 162.416 23.8188C163.373 24.8329 164.828 25.6746 166.74 26.3109C167.672 26.6291 168.603 26.9406 169.508 27.2322C170.376 27.5139 171.155 27.8354 171.824 28.1867C172.487 28.5379 173.02 28.9853 173.405 29.5222C173.786 30.0558 173.981 30.7616 173.981 31.6233C173.981 32.6937 173.574 33.5819 172.772 34.2679C171.97 34.9572 170.84 35.3052 169.415 35.3052C167.801 35.3052 166.535 34.8445 165.65 33.9365C164.762 33.0251 164.301 31.9017 164.278 30.5959V30.5529H160.222V30.5959C160.245 32.2264 160.649 33.6548 161.418 34.8379C162.187 36.021 163.274 36.9456 164.646 37.5852Z" fill="#444B5A"></path>
<path fill-rule="evenodd" clip-rule="evenodd" d="M180.822 20.445V45.9198L180.828 45.9165H184.672V35.527C185.279 36.4616 186.101 37.2006 187.108 37.7209C188.162 38.2677 189.392 38.5428 190.764 38.5428C192.487 38.5428 194.021 38.1418 195.324 37.3498C196.623 36.5577 197.66 35.4541 198.406 34.0722C199.151 32.6869 199.529 31.0896 199.529 29.3166C199.529 27.5436 199.151 25.9396 198.406 24.5444C197.663 23.1492 196.626 22.0357 195.324 21.2304C194.021 20.4251 192.497 20.0175 190.797 20.0175C189.233 20.0175 187.937 20.3422 186.943 20.9818C185.985 21.5982 185.216 22.3108 184.653 23.1028L184.271 20.445H180.822ZM186.2 25.0216C187.214 23.9247 188.533 23.3679 190.121 23.3679V23.3646C191.194 23.3646 192.152 23.6198 192.971 24.1202C193.789 24.6239 194.439 25.3265 194.906 26.2147C195.377 27.1028 195.612 28.1335 195.612 29.2801C195.612 31.0332 195.092 32.4715 194.064 33.5585C193.037 34.6455 191.711 35.1956 190.124 35.1956C188.537 35.1956 187.214 34.6455 186.2 33.5618C185.183 32.4748 184.669 31.0134 184.669 29.2834C184.669 27.5535 185.183 26.1186 186.2 25.0216Z" fill="#444B5A"></path>
<path fill-rule="evenodd" clip-rule="evenodd" d="M204.371 37.7973C205.342 38.2944 206.591 38.5462 208.079 38.5462L208.083 38.5495C209.62 38.5495 210.883 38.2115 211.831 37.5487C212.739 36.9157 213.448 36.1303 213.942 35.2123L214.25 38.1253H217.594V27.2686C217.594 25.0449 216.908 23.2653 215.559 21.9728C214.207 20.6804 212.278 20.0275 209.819 20.0275C208.447 20.0275 207.171 20.2727 206.025 20.7566C204.878 21.2404 203.917 21.9496 203.171 22.861C202.422 23.7756 201.985 24.8858 201.862 26.1651V26.2114H205.703L205.71 26.175C205.872 25.1974 206.336 24.4517 207.092 23.9513C207.847 23.4509 208.752 23.1957 209.779 23.1957C210.943 23.1957 211.907 23.537 212.639 24.2131C213.372 24.8858 213.743 25.9132 213.743 27.2653V27.5404H209.176C206.721 27.5404 204.802 28.0441 203.476 29.0383C202.147 30.0358 201.475 31.4045 201.475 33.1145C201.475 34.0856 201.716 34.9936 202.19 35.8122C202.664 36.6307 203.4 37.3001 204.371 37.7973ZM206.422 30.9472C207.035 30.4368 208.096 30.1783 209.567 30.1783H209.571H213.707C213.607 31.1228 213.369 31.9944 212.987 32.7765C212.603 33.5686 212.06 34.2148 211.37 34.692C210.684 35.1692 209.852 35.4112 208.825 35.4112C207.798 35.4112 206.979 35.1825 206.386 34.7285C205.796 34.2778 205.498 33.6315 205.498 32.866C205.498 32.1005 205.809 31.4575 206.422 30.9472Z" fill="#444B5A"></path>
<path fill-rule="evenodd" clip-rule="evenodd" d="M220.782 20.3522V38.0259H220.785H224.63V29.542C224.63 28.1136 224.871 26.9836 225.349 26.1783C225.826 25.3763 226.472 24.7963 227.277 24.4583C228.086 24.1203 229.017 23.9479 230.045 23.9479H231.115V19.9247H231.072C229.511 19.9247 228.159 20.2661 227.059 20.9421C225.998 21.595 225.15 22.4798 224.54 23.5834L224.232 20.3522H220.782Z" fill="#444B5A"></path>
<path fill-rule="evenodd" clip-rule="evenodd" d="M233.836 20.3522V38.0259H233.839H237.683V29.542C237.683 28.1136 237.925 26.9836 238.403 26.1783C238.88 25.3763 239.526 24.7963 240.331 24.4583C241.14 24.1203 242.071 23.9479 243.099 23.9479H244.169V19.9247H244.126C242.565 19.9247 241.213 20.2661 240.113 20.9421C239.052 21.595 238.204 22.4831 237.594 23.5834L237.286 20.3522H233.836Z" fill="#444B5A"></path>
<path fill-rule="evenodd" clip-rule="evenodd" d="M249.147 37.3862C250.485 38.155 252.013 38.5461 253.69 38.5461L253.687 38.5428C255.364 38.5428 256.898 38.155 258.247 37.3862C259.592 36.6173 260.679 35.527 261.471 34.1418C262.263 32.7598 262.664 31.1227 262.664 29.2801C262.664 27.4375 262.263 25.8004 261.471 24.4185C260.679 23.0332 259.599 21.9429 258.263 21.174C256.925 20.4085 255.374 20.0175 253.72 20.0175C252.066 20.0175 250.545 20.4052 249.196 21.174C247.851 21.9429 246.764 23.0365 245.972 24.4185C245.18 25.8004 244.779 27.4375 244.779 29.2801C244.779 31.1227 245.176 32.7598 245.955 34.1418C246.737 35.527 247.811 36.6173 249.147 37.3862ZM251.248 24.0042C252.007 23.5601 252.842 23.3348 253.727 23.3348C254.611 23.3348 255.447 23.5601 256.205 24.0042C256.961 24.4483 257.577 25.1144 258.031 25.9893C258.485 26.8642 258.717 27.9744 258.717 29.2834C258.717 30.5925 258.482 31.7027 258.015 32.5776C257.548 33.4558 256.925 34.1252 256.169 34.566C255.41 35.0067 254.575 35.2321 253.69 35.2321C252.805 35.2321 251.977 35.01 251.231 34.566C250.485 34.1219 249.869 33.4525 249.402 32.5776C248.934 31.7027 248.699 30.5925 248.699 29.2834C248.699 27.9744 248.934 26.8642 249.402 25.9893C249.869 25.1144 250.489 24.4483 251.248 24.0042Z" fill="#444B5A"></path>
<path fill-rule="evenodd" clip-rule="evenodd" d="M276.338 24.3093L280.348 38.026H284.278L289.481 20.3523H285.63L282.26 33.4924L278.462 20.3523H274.214L270.419 33.4924L267.046 20.3523H263.198L268.401 38.026H272.328L276.338 24.3093Z" fill="#444B5A"></path>
</svg>