<svg xmlns="http://www.w3.org/2000/svg" viewBox="0 0 48 48" width="48" height="48" color="#2E9CA6">
  
  <path fill="currentColor" d="M39.6342 12.2727C39.8621 9.06097 37.9898 6.07368 35.0165 4.90611C32.0433 3.73504 28.6598 4.65367 26.6682 7.16762L25.2412 6.67324L23.7861 6.21743L22.3135 5.8037C24.3261 2.34308 27.955 0.158708 31.9311 0.00794081C35.9071 -0.13932 39.6938 1.77156 41.9553 5.07441L46.4924 5.39348L39.6342 12.2727Z"></path>
  
  <path fill="currentColor" d="M42.9791 24.5164L42.9476 25.5087L42.8775 26.5009L42.7653 27.4827L42.611 28.4539L42.4146 29.4251L42.1797 30.3858L41.9027 31.336L41.5837 32.2756L41.226 33.1943L40.8368 34.1024L40.3951 34.9789L39.9252 35.8555L39.4238 36.704L38.8804 37.5209L38.3054 38.3274L37.6918 39.1022L37.0572 39.8455L36.3805 40.5678L35.6722 41.2585L34.9464 41.9212L34.1891 42.5418L33.4002 43.1414L32.5902 43.6989L31.7593 44.2248L30.9003 44.7087L30.0307 45.1645L29.1401 45.5782L28.2285 45.9498L27.3064 46.2794L26.3737 46.5775L25.42 46.8264L24.4664 47.0438L23.4916 47.2086L22.5274 47.3418L21.5457 47.426L20.5639 47.4786H19.5892L18.6075 47.4365L17.6257 47.3523L16.651 47.2296L15.6868 47.0648L14.7226 46.858L13.7794 46.609L12.8363 46.3285L12.2437 46.6581L11.6196 46.9491L10.9955 47.2191L10.3504 47.447L9.6947 47.6328L9.02852 47.7766L8.35183 47.8888L7.67513 47.9624L6.98791 47.994L6.30069 47.9835L5.624 47.9414L4.9473 47.8467L4.2706 47.724L11.4233 40.5433C18.4918 44.337 27.1837 43.0432 32.8637 37.3491C38.5403 31.655 39.8761 22.893 36.1561 15.7439L39.6272 12.2622L40.1216 13.1247L40.5739 14.0013L40.9946 14.8884L41.3733 15.807L41.7099 16.7361L42.0184 17.6758L42.2744 18.626L42.4988 19.5867L42.6741 20.5684L42.8073 21.5501L42.909 22.5319L42.9616 23.5136L42.9721 24.5059L42.9791 24.5164Z"></path>
  
  <path fill-rule="evenodd" clip-rule="evenodd" fill="currentColor" d="M20.0275 39.0321C28.0918 39.0321 34.6344 32.437 34.6344 24.2991C34.6344 23.7977 34.6098 23.2998 34.5607 22.8089C34.403 21.2206 33.9927 19.7024 33.3721 18.3034L20.7217 30.9258L13.0677 23.2717C12.3805 22.5845 12.3805 21.4695 13.0677 20.7823C13.7549 20.0951 14.8699 20.0951 15.5571 20.7823L20.7252 25.9505L31.5103 15.1899C29.8484 13.0617 27.6184 11.4067 25.0519 10.4565C25.0379 10.4495 25.0273 10.446 25.0133 10.4425C24.817 10.3724 24.6171 10.3023 24.4138 10.2357C24.3997 10.2322 24.3892 10.2286 24.3752 10.2251C19.5822 8.6193 14.4526 7.74976 9.12669 7.74976C7.3841 7.74976 5.66606 7.84442 3.97256 8.02675C3.34144 9.82192 3.00134 11.7503 3.00134 13.7629C3.00134 17.0552 3.91646 20.1267 5.50478 22.7423C5.44868 23.2542 5.42413 23.7731 5.42413 24.2991C5.42413 32.437 11.9667 39.0321 20.031 39.0321H20.0275Z"></path>
</svg>